<?xml version="1.0" standalone="no"?>
<!DOCTYPE svg PUBLIC "-//W3C//DTD SVG 20010904//EN"
 "http://www.w3.org/TR/2001/REC-SVG-20010904/DTD/svg10.dtd">
<svg version="1.0" xmlns="http://www.w3.org/2000/svg"
 width="800.000000pt" height="800.000000pt" viewBox="0 0 800.000000 800.000000"
 preserveAspectRatio="xMidYMid meet">
<metadata>
Created by potrace 1.14, written by Peter Selinger 2001-2017
</metadata>
<g transform="translate(0.000000,800.000000) scale(0.100000,-0.100000)"
fill="#000000" stroke="none">
<path d="M0 7926 c0 -69 2 -77 29 -103 48 -47 49 -145 1 -115 -11 6 -22 12
-25 12 -3 0 -5 -28 -5 -61 0 -52 2 -60 14 -50 8 7 27 11 43 9 20 -2 30 -11 38
-33 5 -16 13 -32 16 -35 4 -3 4 -20 2 -37 -5 -28 -9 -33 -32 -33 -27 0 -63 29
-74 60 -3 8 -6 -43 -6 -115 0 -93 3 -125 10 -112 19 33 127 17 170 -25 36 -37
41 -91 8 -108 -17 -10 -29 -6 -72 23 -29 18 -67 37 -84 40 l-33 7 0 -73 0 -73
67 -1 c38 -1 69 -6 71 -12 2 -6 15 -11 28 -11 13 0 24 -4 24 -10 0 -5 -4 -10
-10 -10 -5 0 -10 -6 -10 -14 0 -21 -71 -59 -105 -57 -18 1 -37 11 -47 24 -17
21 -18 14 -18 -162 0 -160 2 -182 15 -171 8 6 17 19 20 28 4 15 22 17 125 17
96 0 123 -3 130 -15 14 -21 13 -23 -20 -45 -32 -21 -36 -35 -20 -65 8 -15 5
-24 -12 -40 -25 -23 -40 -22 -167 9 l-71 18 0 -144 c0 -78 4 -143 8 -143 4 0
13 5 20 12 14 14 18 11 27 -25 6 -22 4 -27 -10 -27 -10 0 -24 8 -31 18 -11 14
-13 -25 -14 -246 0 -267 3 -284 35 -221 9 16 22 29 30 29 8 0 15 5 15 10 0 18
56 11 80 -10 31 -27 88 -26 121 3 14 12 33 41 44 65 23 54 45 54 97 2 32 -32
39 -45 36 -71 -5 -48 26 -47 73 3 36 38 38 44 30 74 -11 40 -1 51 68 74 44 15
46 18 52 61 6 49 27 99 42 99 5 0 7 11 4 26 -4 21 0 26 26 31 29 6 29 7 24 56
-4 27 -8 51 -10 53 -2 2 -17 4 -35 6 -27 2 -33 7 -38 34 -4 20 0 43 11 64 10
20 15 49 13 78 -3 42 -1 47 19 50 12 2 33 -4 46 -13 28 -18 34 -13 35 30 1 17
10 48 22 70 11 21 20 45 20 51 0 12 90 82 112 87 7 1 15 -15 19 -38 4 -22 10
-56 13 -75 8 -41 -2 -59 -33 -65 -25 -5 -50 -31 -51 -53 0 -33 34 -80 83 -112
28 -19 61 -46 72 -60 28 -35 66 -70 77 -70 5 0 19 10 31 23 21 22 67 26 67 6
0 -5 7 -9 16 -9 19 0 39 -23 55 -60 16 -38 38 -214 28 -224 -5 -6 -9 -17 -9
-26 0 -23 -42 -70 -61 -70 -19 0 -40 24 -57 63 -6 15 -16 27 -21 27 -14 0 -66
-52 -81 -80 -16 -31 -13 -154 5 -194 29 -65 34 -94 51 -276 2 -19 5 -98 8
-175 2 -77 9 -164 15 -194 17 -81 14 -180 -7 -242 -19 -55 -36 -142 -47 -236
-4 -39 -2 -55 10 -67 13 -12 13 -16 3 -16 -22 0 -44 -33 -64 -96 -17 -51 -20
-84 -15 -155 1 -15 25 -28 56 -33 5 0 16 -14 23 -29 10 -21 11 -31 2 -42 -6
-8 -9 -18 -6 -23 7 -12 46 -23 46 -13 0 4 14 8 32 9 46 4 53 22 16 44 -27 17
-29 23 -24 54 5 24 3 36 -6 39 -25 10 -19 56 12 91 16 19 32 45 36 58 6 25 35
39 61 29 12 -5 14 -20 8 -87 -4 -45 -11 -101 -16 -126 -9 -40 -8 -47 11 -62
12 -10 26 -15 31 -12 20 12 49 -9 68 -50 23 -47 26 -60 11 -51 -5 3 -10 2 -10
-3 0 -14 32 -39 64 -51 18 -7 26 -16 23 -25 -3 -8 1 -20 8 -26 16 -14 11 -30
-10 -30 -7 0 -15 10 -19 23 -7 28 -43 30 -99 4 -29 -12 -37 -21 -33 -34 3 -10
2 -24 -3 -31 -5 -9 3 -24 23 -46 25 -25 35 -30 50 -23 16 8 25 4 43 -17 25
-29 31 -66 11 -66 -10 0 -10 -2 0 -9 11 -7 11 -9 -2 -14 -9 -4 -16 -13 -16
-20 0 -16 -67 -64 -95 -69 -12 -2 -19 5 -21 22 -8 48 -13 52 -49 48 -28 -3
-35 -1 -32 11 2 9 -2 28 -9 42 -7 15 -11 29 -8 32 3 2 -18 5 -45 5 -49 0 -51
-1 -51 -29 0 -16 -4 -29 -9 -29 -5 0 -8 -7 -7 -16 2 -24 -19 -28 -40 -7 -10
11 -32 18 -53 18 -34 0 -37 2 -47 44 -6 27 -13 40 -18 33 -13 -21 -46 -13 -56
13 -11 28 -31 32 -49 11 -19 -23 -68 -25 -91 -3 -29 26 -12 43 50 52 38 5 58
15 85 42 19 19 35 41 35 49 0 8 14 28 30 44 17 17 26 30 20 30 -6 0 -9 3 -7 7
10 17 -13 51 -40 58 -24 6 -32 2 -56 -27 -28 -33 -28 -33 -7 -47 28 -19 26
-49 -5 -57 -17 -4 -33 1 -52 16 l-28 22 -28 -32 c-19 -22 -34 -30 -45 -25 -9
4 -35 9 -57 11 -64 8 -75 13 -75 40 0 18 -5 24 -23 24 -32 0 -67 27 -67 53 -1
12 -9 38 -19 56 l-19 35 -7 -33 c-6 -28 -11 -32 -33 -29 -29 3 -28 -3 -19 99
5 72 -82 52 -93 -21 -7 -48 -28 -56 -73 -30 -37 22 -38 24 -32 64 4 22 8 46 9
51 0 6 -11 11 -26 13 -16 2 -28 9 -28 18 0 16 -18 18 -39 5 -8 -5 -11 -16 -6
-31 8 -26 -12 -70 -32 -70 -7 0 -13 -5 -13 -11 0 -5 -5 -7 -11 -3 -10 6 -9 25
4 82 4 13 2 20 -4 17 -5 -4 -9 -1 -9 4 0 6 -4 11 -10 11 -5 0 -10 -9 -10 -20
0 -11 -7 -23 -15 -26 -8 -4 -15 -12 -15 -20 0 -8 -4 -14 -10 -14 -7 0 -10
-198 -10 -575 l0 -576 32 1 c59 1 148 -25 185 -54 45 -36 77 -91 79 -133 1
-43 20 -63 58 -63 24 0 45 -11 80 -44 71 -65 86 -92 86 -156 0 -71 -21 -104
-105 -170 -36 -29 -65 -56 -65 -61 0 -14 23 -11 61 7 64 32 98 63 109 103 9
35 15 41 69 61 49 18 65 20 97 11 34 -9 41 -8 54 7 20 24 65 52 84 52 22 0 56
-49 56 -80 0 -16 7 -30 15 -34 17 -6 20 -37 6 -51 -12 -13 -61 -106 -61 -116
0 -5 14 -9 30 -9 17 0 30 4 30 10 0 5 18 21 39 36 28 18 54 26 92 27 52 2 53
3 60 35 12 57 77 114 105 91 12 -10 19 -8 37 10 35 32 74 28 95 -11 9 -18 29
-45 45 -61 40 -42 36 -71 -12 -90 -42 -17 -65 -17 -83 1 -17 17 -28 15 -28 -5
0 -10 -12 -31 -26 -48 -44 -51 -14 -45 156 32 30 14 89 38 130 53 164 61 210
91 196 126 -4 9 3 32 14 51 15 26 18 44 14 73 -6 33 -3 42 20 64 22 20 34 23
64 19 36 -6 37 -6 20 14 -11 12 -18 36 -18 61 0 22 -4 44 -10 47 -5 3 -10 17
-10 31 0 17 5 24 20 24 10 0 35 8 55 17 29 14 39 14 58 4 13 -7 41 -11 63 -9
39 3 39 3 38 45 0 23 -7 49 -14 58 -13 16 -15 16 -27 0 -9 -13 -21 -16 -47
-12 -29 5 -36 2 -41 -14 -4 -13 -12 -18 -22 -15 -8 3 -21 6 -29 6 -8 0 -22 16
-31 34 -14 29 -19 33 -35 25 -10 -5 -18 -18 -18 -29 0 -27 -25 -36 -95 -36
l-60 1 -3 44 c-3 40 0 47 30 73 18 15 40 28 47 28 12 0 12 3 3 12 -18 18 -15
38 11 58 19 16 20 22 10 39 -18 28 -16 51 4 74 17 18 17 19 -20 13 -20 -3 -53
-8 -72 -11 -20 -4 -42 -16 -54 -31 -12 -15 -34 -27 -55 -31 l-34 -5 -21 66
c-11 36 -28 77 -37 91 l-17 26 56 -6 57 -7 -6 45 -7 46 40 10 c100 27 103 26
142 -24 23 -30 23 -30 21 -5 -4 42 -1 46 37 58 24 7 42 8 54 1 10 -5 29 -7 43
-3 31 7 40 -9 37 -61 -2 -38 0 -42 33 -58 44 -21 46 -46 6 -75 -33 -25 -53
-27 -99 -11 -26 9 -38 9 -58 -2 l-25 -14 33 -8 c19 -5 42 -8 51 -8 10 0 17 -3
16 -7 -1 -4 6 -22 15 -39 15 -28 23 -33 56 -33 21 0 53 7 71 16 26 13 39 14
67 6 l34 -10 -3 81 -3 82 -42 -3 c-51 -3 -54 7 -13 31 41 24 39 64 -2 80 -25
9 -22 29 6 60 28 30 43 82 27 92 -19 11 -13 45 8 45 11 0 23 4 26 10 3 5 18
10 33 10 30 0 52 -26 62 -75 5 -25 11 -31 40 -33 19 -2 41 -8 48 -14 28 -24
21 4 -17 69 -46 78 -66 101 -101 124 -18 12 -29 32 -38 74 -19 79 -30 107 -41
100 -6 -3 -4 -17 5 -33 7 -15 11 -35 8 -46 -4 -13 -3 -16 6 -11 8 5 11 3 8 -5
-3 -9 -23 -14 -57 -14 -56 -1 -71 10 -71 53 0 12 -7 21 -15 21 -8 0 -15 7 -15
15 0 15 16 20 53 17 9 -1 17 1 17 4 0 12 -84 104 -95 104 -6 0 -21 10 -32 23
-12 12 -37 33 -57 47 -40 28 -42 33 -22 52 7 8 17 43 20 79 5 45 4 60 -3 49
-9 -13 -11 -13 -11 2 0 9 -8 30 -17 47 -15 26 -16 32 -4 43 12 11 13 10 7 -2
-4 -8 2 -4 14 9 26 30 24 74 -4 79 -10 2 -23 -3 -28 -11 -8 -15 -62 -47 -79
-47 -5 0 -15 14 -24 30 -12 23 -22 30 -45 30 -24 0 -60 21 -60 35 0 3 13 11
30 20 33 17 53 81 30 95 -9 5 -13 30 -12 74 1 36 -3 68 -8 71 -5 3 -20 -6 -34
-20 -15 -15 -31 -22 -40 -19 -18 7 -22 34 -6 34 6 0 10 7 10 16 0 8 4 13 9 10
5 -3 11 3 14 14 3 11 11 19 17 18 19 -5 50 61 43 93 -5 26 -3 29 21 29 24 0
25 2 15 27 -6 15 -15 31 -21 34 -18 12 -17 70 3 158 11 46 22 114 24 150 4 57
2 70 -15 89 -11 11 -20 30 -20 42 0 13 -7 20 -20 20 -11 0 -20 -4 -20 -10 0
-5 -17 -10 -39 -10 -30 0 -42 -6 -54 -24 -11 -16 -12 -27 -5 -34 13 -13 0 -72
-17 -72 -7 0 -18 7 -25 15 -18 22 -31 19 -68 -16 l-32 -30 -9 23 c-4 13 -7 62
-6 110 1 66 6 92 18 106 10 10 17 28 17 40 0 11 5 24 10 27 6 3 10 17 10 30 0
32 14 39 56 25 25 -8 39 -9 46 -2 15 15 -4 83 -27 96 -82 46 -88 124 -10 131
43 4 73 17 83 38 30 59 83 181 88 203 7 28 21 30 69 10 44 -19 46 -53 5 -68
-26 -10 -46 -56 -33 -77 7 -10 10 -27 8 -37 -2 -13 11 -32 38 -56 33 -29 48
-35 70 -31 22 4 27 11 25 27 -1 11 2 27 6 35 5 8 12 28 15 45 4 17 14 32 23
34 25 5 29 -51 25 -317 -3 -188 -1 -240 10 -263 13 -25 13 -32 -5 -61 -15 -25
-17 -40 -11 -67 4 -19 6 -43 3 -53 -3 -9 4 -31 16 -47 15 -22 20 -39 16 -56
-4 -14 -2 -52 5 -84 8 -44 17 -61 35 -70 13 -8 28 -30 36 -54 9 -30 19 -42 35
-44 28 -4 42 28 44 96 1 58 16 155 32 202 15 45 16 47 27 31 4 -8 23 -14 41
-15 19 -1 44 -7 57 -14 14 -8 22 -9 22 -2 0 8 6 7 21 0 17 -10 20 -19 16 -57
-4 -47 11 -95 28 -89 6 2 19 0 30 -4 11 -4 41 -4 67 0 26 3 45 3 43 -1 -6 -8
33 -16 57 -11 14 3 15 7 5 29 -14 31 4 47 65 57 22 4 55 17 72 29 22 16 49 23
98 25 65 4 68 6 68 29 0 30 31 29 40 -2 3 -14 14 -20 38 -21 107 -4 102 -2
102 -29 0 -14 2 -25 6 -25 12 0 74 56 74 67 0 6 5 13 11 15 6 2 13 25 16 51 8
66 -17 115 -68 135 -21 8 -39 21 -39 29 0 7 -6 16 -14 19 -11 4 -13 18 -9 59
5 51 4 54 -37 99 -40 43 -72 57 -84 38 -3 -5 -52 -9 -111 -10 -58 -1 -113 -6
-123 -11 -17 -10 -150 -34 -247 -46 -48 -6 -84 -23 -114 -52 -7 -8 -20 -12
-28 -9 -8 3 -22 6 -31 6 -22 0 -58 60 -42 70 7 4 12 60 14 153 1 80 -2 143 -6
141 -5 -3 -11 2 -15 11 -3 10 -1 20 4 24 6 3 14 16 17 29 4 12 13 21 20 20 6
-2 25 11 41 28 29 29 105 138 105 150 0 3 17 31 37 62 51 77 160 190 203 208
126 55 224 76 353 75 26 0 47 5 47 10 0 5 9 9 19 9 11 0 23 5 26 11 4 6 14 8
22 5 8 -3 26 3 39 13 45 35 78 36 126 3 41 -28 46 -29 105 -21 35 5 79 16 99
24 20 8 48 15 63 15 15 0 37 7 49 16 22 15 62 11 62 -6 0 -13 49 -22 116 -21
34 0 76 -4 93 -9 20 -5 53 -5 91 2 48 9 73 8 135 -5 41 -10 89 -17 104 -17 36
0 121 -41 165 -81 19 -16 38 -29 43 -29 11 0 69 -63 83 -91 6 -10 10 -36 10
-59 0 -27 7 -48 20 -62 29 -31 34 -72 15 -122 -15 -38 -15 -54 -5 -117 11 -76
83 -292 106 -319 27 -33 69 -176 114 -390 30 -143 24 -133 65 -113 23 11 37
26 41 43 3 14 12 39 20 56 8 17 16 37 18 45 1 8 12 36 24 63 12 27 22 52 22
56 0 13 76 60 98 60 31 0 84 -50 116 -112 16 -29 34 -60 41 -68 7 -8 18 -67
25 -130 12 -108 11 -119 -9 -185 -11 -38 -30 -122 -42 -185 -11 -63 -28 -140
-36 -170 -8 -30 -18 -96 -22 -146 l-8 -91 -44 -43 c-24 -24 -55 -49 -69 -56
-16 -9 -19 -14 -9 -14 12 0 14 -7 11 -30 -6 -44 -25 -54 -53 -31 -21 17 -22
23 -12 40 11 17 10 21 -7 25 -11 3 -30 9 -41 12 -21 6 -22 4 -15 -36 7 -45 28
-84 39 -73 19 18 4 -36 -16 -58 -43 -49 -91 -144 -83 -164 4 -12 91 -39 164
-50 25 -4 48 -15 56 -27 19 -27 63 -17 76 17 12 32 45 51 103 59 34 4 47 2 47
-7 0 -7 -36 -48 -80 -92 -44 -44 -80 -84 -80 -88 0 -5 7 -4 16 4 27 22 145 59
190 59 23 0 55 -8 71 -17 29 -16 30 -16 64 16 26 25 40 31 60 27 18 -3 32 0
40 10 10 12 24 15 58 10 25 -3 49 -2 56 4 7 6 36 13 65 17 35 4 55 12 63 24 7
11 15 19 20 19 23 0 138 101 163 143 16 26 31 47 35 47 4 0 11 9 14 20 3 11
14 20 24 20 10 0 24 6 31 14 6 8 26 16 43 18 27 3 33 8 40 41 5 20 14 37 19
37 17 0 -2 73 -25 98 -20 21 -20 23 -4 57 9 20 17 56 17 81 0 38 5 51 31 75
40 37 49 37 49 -5 0 -65 11 -96 36 -102 14 -4 31 -1 40 7 10 8 42 12 92 11 42
-1 95 3 117 9 62 17 154 61 160 77 8 22 -21 59 -73 95 -63 43 -102 82 -102
102 0 17 45 65 85 91 13 9 69 16 154 19 117 5 136 4 159 -12 21 -13 53 -18
141 -21 113 -4 176 6 211 33 38 30 118 20 142 -17 5 -9 11 -8 22 1 12 10 16
10 16 2 0 -7 10 0 23 14 18 22 26 25 47 17 31 -11 89 3 97 23 3 8 10 15 17 15
6 0 26 12 43 28 17 15 43 35 57 45 14 10 29 30 32 45 12 49 44 71 102 69 29 0
52 -4 52 -7 0 -4 11 -12 25 -18 22 -10 23 -14 13 -44 -6 -18 -15 -39 -21 -46
-13 -17 -3 -152 13 -162 7 -4 10 -12 7 -17 -4 -6 0 -19 8 -29 13 -19 14 -19
21 1 12 32 42 56 79 62 l35 6 0 518 0 519 -27 0 c-18 0 -44 14 -72 38 -44 38
-45 39 -31 71 8 19 27 39 49 51 20 10 46 30 59 44 l22 26 0 469 c0 298 -4 472
-10 476 -5 3 -24 2 -42 -3 -44 -12 -108 -4 -108 14 0 10 -9 8 -35 -7 -19 -12
-35 -25 -35 -29 0 -11 -64 7 -111 31 -66 35 -84 82 -53 141 21 40 9 52 -70 67
-92 17 -117 53 -97 141 6 27 6 50 0 61 -6 11 -5 20 1 24 6 4 4 18 -6 37 -13
25 -14 35 -4 54 8 14 19 20 29 17 40 -12 60 -27 63 -47 2 -17 9 -20 35 -18 30
3 76 -14 153 -58 19 -11 46 -20 60 -20 14 0 37 -6 51 -14 26 -13 79 -11 79 4
0 4 8 7 18 7 9 0 32 1 50 2 l32 1 0 70 0 70 -40 17 c-22 10 -40 20 -40 23 0 3
17 5 37 5 l38 0 0 128 1 127 -1684 0 c-1036 0 -1681 -4 -1677 -9 3 -5 1 -12
-5 -16 -39 -24 30 -101 99 -111 25 -4 51 -10 57 -15 6 -5 57 -10 115 -11 83
-2 109 0 129 13 22 15 165 35 269 38 19 1 46 8 60 16 72 40 117 57 167 62 51
5 54 4 54 -16 0 -12 -7 -30 -16 -39 -23 -22 -2 -27 35 -8 50 26 110 20 172
-17 31 -18 74 -41 97 -50 61 -25 136 -82 182 -139 22 -28 40 -54 40 -59 0 -5
12 -15 28 -23 40 -21 102 -79 102 -96 1 -21 22 -46 46 -54 21 -6 77 -81 109
-144 9 -18 19 -59 22 -90 3 -31 9 -59 13 -62 4 -3 15 -22 23 -42 9 -21 21 -38
28 -38 7 0 9 -8 6 -21 -3 -11 1 -36 9 -56 9 -19 14 -47 12 -62 -1 -15 7 -40
20 -58 12 -17 22 -36 22 -41 0 -17 27 -62 33 -56 6 6 6 4 7 -81 0 -27 1 -63 2
-80 3 -71 1 -102 -10 -132 -8 -26 -8 -36 4 -47 17 -18 18 -33 2 -38 -9 -3 -7
-14 5 -40 9 -20 17 -39 17 -43 0 -4 9 -18 20 -32 30 -38 25 -46 -25 -41 -48 6
-59 -7 -30 -36 19 -18 21 -60 3 -50 -7 4 4 -9 25 -28 33 -32 37 -41 37 -87 0
-28 -6 -67 -14 -86 -12 -29 -12 -36 0 -52 10 -13 16 -15 21 -6 5 6 20 14 34
18 22 5 33 0 61 -28 36 -36 54 -67 39 -67 -5 0 -14 -13 -20 -30 -5 -16 -12
-30 -15 -30 -8 0 -80 42 -98 58 -10 8 -18 28 -18 44 0 55 -35 26 -44 -37 -10
-67 -109 -355 -136 -395 -9 -14 -29 -44 -44 -66 -37 -57 -59 -140 -43 -165 7
-11 15 -19 19 -19 5 0 8 -9 8 -20 0 -11 7 -20 15 -20 13 0 13 -4 -2 -27 -22
-35 -33 -43 -60 -43 -16 0 -23 6 -23 20 0 41 -36 21 -85 -47 -27 -38 -55 -75
-62 -83 -26 -29 -113 -165 -113 -178 0 -7 -10 -17 -23 -23 -12 -5 -33 -25 -45
-44 -29 -42 -141 -140 -150 -131 -3 4 -2 10 3 14 23 16 127 182 122 195 -3 8
-24 17 -47 21 -43 7 -47 26 -5 26 13 0 26 4 29 9 3 5 21 12 40 15 39 7 88 57
114 115 9 20 24 45 33 56 26 31 46 87 40 113 -7 27 -68 92 -87 92 -17 0 -18
20 -1 21 6 1 15 1 18 1 24 -3 135 21 154 34 39 26 77 182 46 192 -7 2 3 15 24
29 24 16 34 30 31 40 -3 8 -6 25 -6 39 0 18 -10 28 -45 44 -46 21 -62 54 -27
57 9 1 37 3 62 5 32 2 45 7 45 18 0 10 -19 17 -65 25 -62 10 -65 11 -63 37 2
30 -2 32 -122 44 -127 12 -128 12 -215 33 -62 15 -70 14 -70 -7 0 -11 -16 -35
-35 -55 -19 -20 -35 -39 -35 -42 0 -18 -53 -52 -73 -48 l-22 5 23 -16 c12 -10
22 -28 22 -42 0 -21 -5 -24 -34 -24 -46 0 -86 16 -86 34 0 8 11 23 25 34 19
15 27 36 37 92 11 65 11 73 -5 85 -20 14 -23 35 -4 36 6 0 -13 9 -43 20 -30
10 -71 28 -91 39 -20 11 -64 23 -98 26 -33 4 -58 10 -56 14 3 4 -2 13 -9 19
-16 13 -20 9 -30 -32 -6 -25 -71 -96 -89 -97 -5 0 -28 -14 -52 -30 -53 -36
-132 -144 -141 -191 -8 -41 -20 -66 -49 -100 l-21 -26 -17 20 c-12 15 -17 41
-18 92 0 38 -4 95 -9 125 -6 46 -4 64 13 105 12 28 30 56 40 64 16 12 18 22
14 64 -7 51 11 103 40 120 22 13 5 27 -33 27 -27 0 -34 -4 -34 -20 0 -23 -41
-28 -57 -7 -22 28 -56 153 -69 252 -3 28 -15 64 -25 81 -13 22 -16 38 -11 59
5 17 1 68 -10 129 -10 56 -16 110 -14 120 6 23 -55 89 -76 81 -30 -11 -119
-12 -115 -1 2 6 18 12 35 14 42 4 40 15 -6 43 -20 13 -39 27 -41 32 -7 18 -50
26 -82 15 -24 -8 -33 -8 -40 3 -4 8 -4 16 2 19 12 8 0 67 -17 81 -8 6 -14 20
-14 31 0 28 -34 19 -38 -10 -2 -15 -10 -22 -26 -22 -12 0 -31 -7 -42 -15 -10
-8 -27 -15 -37 -15 -15 0 -17 5 -12 30 6 28 5 30 -23 30 -16 0 -46 -7 -66 -15
-20 -9 -42 -13 -47 -9 -6 3 -33 9 -60 13 -27 3 -49 10 -48 15 2 15 -25 26 -52
21 -14 -3 -44 -2 -67 3 -27 7 -44 6 -51 -1 -8 -8 -11 -8 -11 1 0 7 5 12 10 12
6 0 10 4 10 9 0 6 -15 11 -32 13 -42 4 -45 31 -5 38 21 4 33 14 43 39 13 32
13 33 -7 28 -13 -4 -26 1 -37 14 -9 10 -24 19 -33 19 -10 0 -21 13 -28 30 -5
17 -15 30 -22 30 -7 0 -21 7 -31 17 -16 14 -23 15 -57 3 -41 -13 -61 -8 -61
16 0 10 -5 9 -20 -6 -22 -22 -40 -26 -40 -8 0 6 -8 4 -20 -7 -10 -9 -26 -15
-33 -12 -19 7 -57 -19 -57 -39 0 -18 -40 -34 -60 -24 -8 4 -20 5 -27 3 -7 -3
-9 3 -6 16 7 26 -29 42 -101 48 -28 2 -55 8 -60 12 -6 5 -31 9 -55 9 -47 1
-57 -7 -152 -116 -28 -32 -41 -40 -58 -35 -12 3 -20 11 -17 18 7 18 -47 27
-57 9 -6 -10 -23 -12 -67 -8 -45 4 -66 1 -82 -10 -12 -9 -34 -16 -48 -16 -25
-1 -70 -30 -70 -47 0 -5 -16 -17 -35 -27 -25 -14 -38 -16 -47 -8 -19 15 -90
10 -108 -8 -38 -38 -78 -110 -73 -129 7 -29 -20 -28 -49 1 -36 36 -54 32 -109
-23 -37 -37 -55 -48 -69 -44 -11 4 -38 6 -60 7 -22 0 -40 4 -40 8 0 10 98 109
103 103 3 -2 7 5 10 16 3 14 1 18 -9 14 -14 -5 -20 13 -7 19 5 2 16 17 25 33
12 21 25 30 41 30 22 -1 24 2 15 25 -27 72 22 123 120 123 72 0 81 -12 54 -66
-12 -25 -22 -49 -22 -56 0 -18 30 -12 30 7 1 41 108 120 125 92 8 -12 49 -13
73 -1 9 5 37 19 62 31 25 13 50 28 55 34 31 35 152 85 206 86 33 0 75 32 65
49 -5 7 -15 10 -23 7 -8 -3 -11 -2 -8 3 3 5 1 12 -3 15 -13 7 2 91 19 112 8
10 14 33 14 52 0 48 26 64 58 34 13 -12 28 -22 33 -22 5 0 32 22 60 49 28 28
78 73 110 101 33 28 62 60 66 70 4 10 24 27 45 37 l38 18 -217 3 c-120 1 -243
-2 -275 -7 -34 -5 -59 -5 -61 0 -2 5 -258 9 -604 9 l-601 0 47 -41 c25 -22 44
-45 40 -50 -8 -14 -41 -10 -48 6 -3 8 -12 12 -21 9 -12 -5 -21 8 -13 19 1 1
-10 14 -25 30 -26 26 -33 27 -115 26 -48 -1 -78 -4 -68 -6 15 -4 16 -7 5 -14
-12 -8 -12 -10 1 -19 12 -7 12 -12 2 -22 -9 -9 -12 -9 -12 0 0 7 -3 11 -7 11
-24 -4 -43 3 -43 16 0 7 8 19 18 24 23 14 -117 15 -153 1 -28 -11 -44 -38 -28
-49 5 -3 9 -39 8 -79 -1 -40 2 -75 6 -78 15 -9 10 -21 -18 -54 l-27 -32 35 7
c34 7 34 7 11 -10 -18 -13 -21 -20 -11 -31 9 -11 8 -14 -5 -14 -13 0 -14 -3
-5 -18 7 -11 9 -31 5 -45 -5 -23 -12 -27 -40 -27 -32 0 -66 -24 -66 -47 0 -5
-8 -17 -19 -27 -19 -18 -43 -14 -73 12 -37 31 -17 65 76 130 68 47 91 108 61
165 -14 27 -13 28 13 38 l27 11 -40 34 c-22 18 -48 36 -57 40 -13 4 -18 16
-18 45 l0 39 -263 0 c-161 0 -267 -4 -273 -10 -16 -16 -72 -18 -91 -4 -14 10
-64 13 -200 14 l-183 0 0 -74z m124 24 c6 0 17 -5 23 -11 9 -9 6 -16 -10 -30
-20 -16 -24 -16 -39 -2 -21 19 -23 44 -5 62 10 10 13 9 15 -3 2 -9 9 -16 16
-16z m6502 -25 c16 -13 17 -16 4 -25 -18 -12 -36 -7 -32 9 1 6 -3 11 -9 11 -5
0 -7 5 -4 10 8 14 18 13 41 -5z m-4607 -37 c5 -13 13 -47 18 -76 12 -66 1 -87
-41 -76 -27 7 -28 8 -21 53 4 25 7 63 6 84 -2 43 23 53 38 15z m-1215 -64 c8
-8 23 -14 34 -14 21 0 72 -53 72 -74 0 -8 -9 -25 -21 -40 -35 -45 -129 -31
-129 19 0 13 5 27 10 30 16 10 12 45 -5 45 -8 0 -18 -1 -21 -2 -14 -7 -23 32
-13 56 14 31 41 38 51 13 4 -10 14 -25 22 -33z m5808 6 c9 0 43 -60 50 -88 11
-39 -1 -52 -44 -52 -40 0 -108 32 -108 51 0 5 -4 9 -10 9 -11 0 -13 -39 -4
-64 3 -9 12 -16 19 -16 7 0 18 -7 25 -15 10 -12 8 -18 -11 -35 -13 -10 -29
-19 -34 -20 -17 0 -75 82 -75 106 0 33 21 74 37 74 7 0 18 11 23 25 12 32 44
44 90 34 19 -5 38 -9 42 -9z m-6286 -8 c12 -8 44 -66 44 -80 0 -19 -70 -84
-85 -78 -22 8 -19 21 15 59 36 41 37 47 8 47 -38 0 -52 14 -39 39 12 21 36 27
57 13z m2311 -100 c25 -16 18 -44 -19 -68 l-36 -23 -16 23 c-19 30 -10 64 18
69 35 7 41 7 53 -1z m-337 -58 c10 -11 11 -23 4 -42 -8 -22 -15 -26 -38 -24
-30 3 -76 29 -76 42 0 36 86 54 110 24z m540 -4 c0 -5 -4 -10 -10 -10 -5 0
-10 5 -10 10 0 6 5 10 10 10 6 0 10 -4 10 -10z m3790 -11 c0 -5 -11 -9 -25 -9
-14 0 -25 5 -25 11 0 5 4 8 9 4 5 -3 12 -1 16 5 7 12 25 4 25 -11z m-5933 -38
c23 -31 21 -49 -4 -60 -49 -22 -98 40 -61 77 14 14 48 5 65 -17z m1921 -57
c-8 -7 -68 17 -68 28 0 5 4 7 9 3 5 -3 13 0 16 6 5 7 14 3 27 -11 11 -12 18
-23 16 -26z m3791 -70 c-15 -18 -22 -13 -13 10 3 9 10 13 16 10 5 -3 4 -12 -3
-20z m21 -25 c0 -11 -4 -17 -10 -14 -5 3 -10 13 -10 21 0 8 5 14 10 14 6 0 10
-9 10 -21z m230 -14 c0 -8 -7 -15 -15 -15 -8 0 -15 7 -15 15 0 8 7 15 15 15 8
0 15 -7 15 -15z m-5256 -11 c22 -58 -13 -115 -62 -98 -40 14 -43 64 -6 93 32
25 60 27 68 5z m964 -28 c-2 -21 -9 -32 -22 -34 -27 -6 -37 18 -20 50 19 37
46 27 42 -16z m-1646 22 c15 -13 33 -90 22 -100 -9 -9 -76 10 -92 26 -14 14
-14 19 1 51 18 37 41 45 69 23z m272 -64 c9 -3 16 -2 16 3 0 12 120 5 148 -9
46 -23 10 -78 -53 -78 -16 0 -39 -7 -49 -15 -28 -21 -33 -19 -51 16 -11 21
-21 29 -32 25 -12 -5 -14 -1 -10 15 4 15 0 23 -14 26 -10 3 -19 12 -19 20 0
15 20 14 64 -3z m1506 6 c0 -5 -7 -10 -16 -10 -8 0 -12 5 -9 10 3 6 10 10 16
10 5 0 9 -4 9 -10z m610 -10 c0 -5 -5 -10 -11 -10 -5 0 -7 5 -4 10 3 6 8 10
11 10 2 0 4 -4 4 -10z m625 -60 c3 -5 -1 -10 -9 -10 -9 0 -16 5 -16 10 0 6 4
10 9 10 6 0 13 -4 16 -10z m-1867 -62 c28 -8 33 -14 30 -36 -3 -23 -9 -28 -63
-38 -50 -10 -65 -10 -98 3 -49 20 -45 40 12 68 43 22 55 23 119 3z m1362 -29
c0 -5 -11 -9 -25 -9 -21 0 -24 2 -13 14 13 14 38 11 38 -5z m360 -6 c0 -20 -3
-24 -11 -16 -7 7 -9 19 -6 27 10 24 17 19 17 -11z m3750 23 c0 -3 -4 -8 -10
-11 -5 -3 -10 -1 -10 4 0 6 5 11 10 11 6 0 10 -2 10 -4z m-6310 -21 c7 -8 16
-12 21 -10 9 6 28 -25 34 -56 3 -15 -2 -19 -25 -19 -16 0 -40 4 -55 10 -20 8
-25 16 -23 37 3 27 17 52 29 53 4 0 12 -7 19 -15z m290 -46 c0 -24 -4 -29 -25
-29 -21 0 -25 5 -25 28 0 35 6 41 31 35 13 -4 19 -14 19 -34z m2350 31 c0 -5
-2 -10 -4 -10 -3 0 -8 5 -11 10 -3 6 -1 10 4 10 6 0 11 -4 11 -10z m-374 -25
c30 -20 33 -25 16 -25 -11 0 -24 5 -27 10 -3 6 -15 10 -26 10 -19 0 -25 11
-12 23 9 10 8 10 49 -18z m3568 -27 c14 -19 16 -20 16 -4 0 10 5 16 13 13 6
-2 11 -15 9 -27 -3 -29 -13 -40 -20 -21 -3 10 -6 11 -12 1 -4 -7 -25 -19 -46
-27 -78 -29 -74 -30 -74 21 0 42 2 46 24 46 14 0 28 5 31 10 11 17 43 11 59
-12z m-5898 -12 c19 -20 18 -34 -6 -41 -11 -3 -20 -13 -20 -21 0 -21 -57 -18
-86 5 -23 18 -23 19 -5 35 35 32 95 43 117 22z m2824 -21 c0 -8 -4 -15 -10
-15 -5 0 -10 7 -10 15 0 8 5 15 10 15 6 0 10 -7 10 -15z m-3230 -11 c0 -8 -4
-12 -10 -9 -5 3 -10 10 -10 16 0 5 5 9 10 9 6 0 10 -7 10 -16z m1891 -15 c4
-7 20 -13 36 -14 16 -1 42 -15 59 -30 l29 -27 -53 3 c-28 2 -52 2 -52 -1 0 -3
-22 -5 -50 -4 -36 1 -50 -2 -50 -12 0 -19 -7 -17 -33 7 -15 15 -18 23 -9 26 6
3 12 13 12 23 0 9 6 22 13 28 26 22 84 22 98 1z m-1688 1 c8 0 8 -3 1 -10 -12
-12 -44 -3 -44 12 0 6 7 7 16 4 9 -3 21 -6 27 -6z m-120 -101 c17 -16 18 -19
3 -48 -26 -49 -74 -37 -70 17 1 18 -5 24 -28 29 -36 7 -41 16 -33 53 l6 29 52
-32 c29 -17 60 -39 70 -48z m1752 -19 c8 -13 -39 -24 -72 -15 -21 5 -24 8 -12
16 19 12 76 12 84 -1z m5234 1 c11 -7 9 -11 -8 -20 -11 -7 -21 -10 -21 -7 0 2
-3 11 -6 20 -7 18 12 21 35 7z m-5550 -28 c0 -5 -4 -17 -9 -28 -8 -18 -9 -17
-9 8 -1 15 4 27 9 27 6 0 10 -3 9 -7z m-1619 -32 c15 -28 12 -67 -5 -81 -8 -7
-15 -18 -15 -25 0 -18 -37 -48 -53 -42 -20 7 -33 132 -17 152 18 22 77 19 90
-4z m1940 9 c0 -5 -4 -10 -9 -10 -6 0 -13 5 -16 10 -3 6 1 10 9 10 9 0 16 -4
16 -10z m-2217 -66 c-23 -16 -40 -1 -22 19 10 11 18 12 27 5 10 -8 8 -13 -5
-24z m1217 16 c0 -5 -4 -10 -10 -10 -5 0 -10 5 -10 10 0 6 5 10 10 10 6 0 10
-4 10 -10z m-1260 -20 c0 -11 -4 -20 -10 -20 -5 0 -10 9 -10 20 0 11 5 20 10
20 6 0 10 -9 10 -20z m561 -13 c13 -16 14 -27 7 -48 -12 -34 -38 -29 -74 13
-23 28 -24 32 -9 48 20 22 53 16 76 -13z m1222 20 c10 -25 -6 -36 -32 -22 -23
12 -23 13 -5 23 25 15 31 15 37 -1z m95 -29 c-17 -26 -13 -48 8 -48 8 0 14 -4
14 -10 0 -16 -43 -51 -60 -48 -8 1 -30 -4 -48 -11 -30 -12 -34 -12 -47 5 -18
24 -18 29 0 44 11 9 19 10 26 3 17 -17 47 -4 42 17 -3 13 7 26 33 44 47 32 50
32 32 4z m68 -24 c-13 -28 -19 -29 -41 -7 -16 15 -15 17 6 29 34 18 49 9 35
-22z m163 31 c-14 -13 -79 -34 -79 -25 0 6 10 15 23 20 23 9 64 13 56 5z
m-204 -155 c3 -5 -3 -10 -14 -10 -12 0 -21 5 -21 10 0 6 6 10 14 10 8 0 18 -4
21 -10z m-1321 -50 c-13 -13 -16 -13 -24 0 -13 20 -13 33 0 25 6 -3 10 -1 10
5 0 7 5 6 14 -2 13 -11 12 -15 0 -28z m1254 -6 c22 -7 12 -19 -25 -31 -32 -10
-41 -9 -55 4 -36 33 10 49 80 27z m5580 -19 c0 -27 -21 -50 -37 -40 -6 3 -8 0
-5 -8 3 -8 1 -18 -5 -22 -15 -9 -14 68 1 83 21 21 46 14 46 -13z m-5518 -65
c-19 -13 -30 -13 -30 0 0 6 10 10 23 10 18 0 19 -2 7 -10z m-66 -174 c-10 -8
-21 -12 -24 -10 -5 6 21 24 34 24 6 0 1 -6 -10 -14z m-96 -8 c16 -19 -10 -122
-31 -126 -20 -4 -23 -22 -3 -22 40 0 45 -79 6 -100 -14 -8 -25 -4 -49 19 -29
27 -30 31 -19 62 10 29 12 31 19 13 4 -10 8 -16 8 -11 2 18 4 23 12 40 7 11 6
17 -2 17 -7 0 -9 9 -6 21 5 17 2 20 -15 16 -25 -7 -61 10 -53 24 4 5 11 7 16
3 5 -3 8 0 7 8 -2 8 8 14 24 16 14 2 32 10 38 18 15 17 34 18 48 2z m-1502
-13 c16 -16 7 -19 -20 -9 -18 7 -22 24 -5 24 6 0 17 -7 25 -15z m-293 -35 c-3
-11 -9 -17 -14 -15 -10 7 -1 35 11 35 5 0 6 -9 3 -20z m357 -47 c0 -18 -13
-16 -37 5 -15 12 -17 20 -9 28 13 14 46 -10 46 -33z m158 -60 c2 -9 -7 -13
-27 -13 -30 0 -46 11 -34 24 11 11 56 2 61 -11z m6247 -123 c3 -6 18 -7 32 -4
22 6 25 4 20 -10 -4 -10 -7 -26 -7 -37 0 -10 -16 -37 -36 -59 -30 -33 -39 -38
-55 -29 -10 5 -19 16 -19 24 0 9 -9 15 -21 15 -18 0 -20 4 -14 33 10 43 13 47
30 40 9 -3 15 1 15 11 0 10 6 13 15 10 8 -4 15 -1 15 5 0 14 17 14 25 1z m121
-25 c3 -14 3 -32 0 -41 -5 -14 -10 -12 -32 11 -20 21 -22 30 -13 41 18 22 38
17 45 -11z m840 -11 c37 -29 42 -50 19 -94 -20 -38 -38 -38 -52 0 -10 28 -15
30 -62 30 -50 0 -51 0 -51 31 0 40 23 58 73 59 26 0 49 -8 73 -26z m-1113 -10
c-1 -10 4 -22 10 -27 7 -5 2 -7 -13 -5 -16 2 -24 9 -21 18 2 8 4 21 4 28 0 7
5 11 11 9 6 -2 10 -13 9 -23z m337 -19 c0 -8 -2 -15 -4 -15 -2 0 -6 7 -10 15
-3 8 -1 15 4 15 6 0 10 -7 10 -15z m-5770 -227 c0 -40 -5 -104 -12 -143 -6
-38 -11 -80 -13 -93 -1 -12 -6 -27 -12 -33 -17 -17 -22 13 -27 156 -4 128 0
165 19 168 6 1 9 5 8 10 -2 4 6 7 17 7 18 0 20 -7 20 -72z m6099 52 c10 -5 21
-22 24 -37 3 -15 9 -36 12 -45 5 -13 2 -18 -9 -18 -8 0 -29 -14 -47 -31 -18
-18 -37 -28 -46 -25 -8 3 -19 6 -24 6 -25 0 0 75 41 128 29 36 26 35 49 22z
m177 -14 c11 -8 15 -18 10 -23 -5 -4 -11 -2 -13 5 -3 6 -11 12 -19 12 -8 0
-14 5 -14 10 0 14 13 12 36 -4z m259 -35 c0 -15 -6 -25 -16 -26 -9 -2 -26 -6
-37 -9 -31 -10 -34 8 -7 38 30 33 60 31 60 -3z m-95 -57 c0 -3 -11 -20 -25
-38 -30 -40 -32 -80 -4 -104 42 -35 44 -51 8 -88 -18 -19 -40 -34 -49 -34 -9
0 -25 -7 -36 -15 -25 -19 -53 -19 -76 2 -18 16 -25 63 -10 63 14 0 92 80 92
95 0 8 11 39 25 70 21 45 30 55 50 55 14 0 25 -3 25 -6z m-711 -53 c19 -12 4
-31 -23 -29 -17 2 -22 7 -18 20 5 20 19 23 41 9z m-942 -36 c23 -16 21 -50 -3
-59 -10 -4 -12 -14 -8 -31 3 -14 1 -39 -7 -56 -11 -29 -15 -31 -52 -26 -45 6
-72 36 -72 82 0 24 -4 29 -20 27 -17 -3 -63 -22 -97 -40 -5 -2 -8 6 -8 19 0
28 27 59 51 59 10 0 22 7 27 16 10 19 32 11 32 -12 0 -8 2 -14 4 -14 2 0 12
-3 22 -7 11 -4 15 -3 11 4 -4 6 14 20 41 31 57 26 53 25 79 7z m-3890 -42 c0
-10 -4 -24 -10 -30 -6 -8 -6 -18 0 -25 5 -7 6 -26 2 -43 l-7 -30 -1 28 c0 16
-5 26 -10 23 -4 -3 -5 13 0 37 4 23 8 45 9 50 0 15 17 6 17 -10z m4583 -7 c0
-8 -4 -18 -10 -21 -5 -3 -10 3 -10 14 0 12 5 21 10 21 6 0 10 -6 10 -14z m283
-3 c4 -3 2 -12 -4 -19 -6 -8 -9 -20 -6 -27 4 -10 -5 -14 -29 -14 -35 0 -42 14
-28 51 6 16 54 22 67 9z m-4833 -23 c0 -5 -5 -10 -11 -10 -5 0 -7 5 -4 10 3 6
8 10 11 10 2 0 4 -4 4 -10z m530 -37 c14 -3 32 -8 40 -10 12 -3 61 -10 93 -12
4 -1 7 -8 7 -16 0 -8 9 -24 20 -35 31 -31 18 -38 -54 -33 -37 3 -71 1 -82 -5
-16 -10 -14 -11 18 -12 21 0 44 -7 53 -17 16 -16 16 -17 -1 -24 -11 -3 -65
-10 -121 -13 -91 -6 -102 -5 -97 8 4 12 0 16 -16 16 -13 0 -19 -4 -14 -12 4
-7 3 -8 -5 -4 -12 8 -104 -32 -153 -66 -87 -60 -135 75 -55 155 38 38 124 86
172 97 30 6 147 -4 195 -17z m2770 -48 c47 -19 72 -20 131 -10 35 7 38 5 49
-28 13 -34 13 -34 42 -19 17 8 53 15 81 16 47 1 52 -1 55 -22 2 -13 -4 -32
-14 -43 -10 -11 -12 -19 -5 -19 7 0 10 -10 7 -24 -2 -14 2 -33 9 -43 29 -37
10 -88 -26 -74 -9 3 -31 19 -49 34 -24 21 -31 34 -28 52 5 26 -7 35 -48 35
-14 0 -23 -4 -20 -9 12 -18 -33 -18 -50 0 -16 18 -16 19 2 19 27 1 -22 21
-121 50 -79 23 -185 74 -185 90 0 25 99 22 170 -5z m1945 -13 c17 -10 36 -31
44 -46 13 -23 13 -28 -1 -43 -15 -14 -20 -14 -61 6 -61 30 -73 45 -59 76 14
30 36 32 77 7z m-5288 -34 c-3 -7 -5 -2 -5 12 0 14 2 19 5 13 2 -7 2 -19 0
-25z m5693 -9 c0 -5 -4 -9 -10 -9 -5 0 -10 7 -10 16 0 8 5 12 10 9 6 -3 10
-10 10 -16z m-29 -27 c7 -15 14 -29 15 -32 1 -3 -4 -14 -12 -25 -14 -18 -14
-18 -34 3 -12 13 -20 35 -20 56 0 28 3 33 19 29 10 -2 24 -17 32 -31z m-4813
-59 c16 -23 26 -63 16 -63 -10 0 -73 74 -68 81 10 17 33 9 52 -18z m3800 -41
c0 -30 -65 -102 -91 -102 -18 0 -39 56 -34 91 2 13 12 26 22 28 11 2 28 14 38
28 l19 24 23 -21 c12 -12 23 -33 23 -48z m-5268 8 c0 -33 -3 -40 -20 -40 -17
0 -20 6 -18 33 2 40 5 47 24 47 10 0 14 -12 14 -40z m5485 21 c0 -8 -12 -18
-27 -22 -30 -8 -38 7 -16 29 16 16 43 11 43 -7z m-4738 -13 c-3 -8 -6 -5 -6 6
-1 11 2 17 5 13 3 -3 4 -12 1 -19z m-880 -14 c8 -21 -23 -84 -42 -84 -19 0
-21 70 -3 88 17 17 37 15 45 -4z m1323 6 c-19 -13 -30 -13 -30 0 0 6 10 10 23
10 18 0 19 -2 7 -10z m2850 -29 c15 -30 12 -61 -7 -68 -10 -4 -20 -9 -23 -13
-14 -17 -64 -50 -76 -50 -20 0 -17 28 6 57 11 14 20 32 20 39 0 18 36 54 55
54 8 0 19 -9 25 -19z m1598 -28 c36 -15 39 -24 15 -44 -42 -35 -70 -41 -144
-34 -93 9 -121 19 -113 40 7 17 74 51 114 58 33 6 87 -3 128 -20z m-1426 -60
c10 -9 18 -30 18 -49 0 -28 -6 -36 -32 -50 -34 -17 -111 -25 -123 -12 -12 12
4 74 26 102 24 31 82 36 111 9z m-4404 -89 c13 -9 26 -14 29 -10 3 3 19 -2 35
-10 20 -10 28 -21 24 -30 -3 -9 -7 -32 -7 -52 -1 -20 -3 -29 -6 -19 -2 10 -10
16 -16 15 -7 -1 -23 4 -36 11 -12 7 -31 11 -42 8 -10 -3 -26 1 -35 8 -16 11
-16 17 -6 54 14 45 25 49 60 25z m192 -20 c0 -14 -31 -19 -43 -8 -3 4 -2 15 4
26 8 15 13 17 25 7 8 -6 14 -18 14 -25z m4503 -39 c-4 -54 -16 -66 -90 -89
-20 -6 -23 -4 -23 17 0 14 7 30 15 37 8 7 15 20 15 29 0 17 56 52 75 47 6 -2
9 -20 8 -41z m-618 19 c39 -9 93 -19 120 -23 41 -5 51 -10 53 -28 4 -26 50
-33 123 -19 25 5 53 6 62 3 23 -9 22 -54 -2 -67 -43 -22 -165 -4 -191 29 -8
10 -31 23 -50 28 -38 9 -109 3 -113 -10 -2 -10 32 -30 86 -51 60 -24 62 -66 3
-69 -21 -2 -26 -7 -26 -29 0 -34 -4 -36 -75 -38 -95 -3 -145 9 -156 37 -5 13
-15 26 -23 29 -40 15 -19 84 25 84 22 0 65 -18 102 -43 15 -10 40 -22 55 -27
l29 -8 -11 39 c-11 41 -38 52 -65 27 -8 -7 -11 -8 -8 -2 4 7 -36 34 -103 69
-60 32 -107 61 -105 64 3 3 36 4 73 3 37 -1 74 2 82 8 20 13 34 13 115 -6z
m895 -69 c0 -40 -21 -56 -63 -48 -40 8 -36 46 8 71 38 22 55 15 55 -23z
m-4905 -91 c0 -34 -3 -39 -24 -42 -25 -4 -51 19 -51 44 0 14 49 43 65 40 6 -2
10 -20 10 -42z m95 -110 c0 -64 -30 -93 -75 -72 -31 14 -31 28 -1 61 14 15 27
35 31 47 5 16 10 18 26 10 13 -8 19 -21 19 -46z m4187 -6 c24 -19 13 -46 -32
-84 -32 -25 -58 -38 -88 -41 -23 -3 -43 -9 -45 -13 -4 -10 -51 0 -59 13 -11
18 -4 79 12 103 12 19 25 24 58 25 23 1 53 5 67 9 28 9 68 4 87 -12z m107
-223 c-4 -8 -8 -15 -10 -15 -2 0 -4 7 -4 15 0 8 4 15 10 15 5 0 7 -7 4 -15z
m-134 -124 c0 -15 -30 -41 -46 -41 -21 0 -17 17 8 34 25 18 38 20 38 7z m-397
-48 c5 -3 1 -10 -9 -17 -12 -9 -28 -10 -63 -3 -56 13 -60 15 -41 28 14 8 94 3
113 -8z m671 -14 c-6 -11 -24 -2 -24 11 0 5 7 7 15 4 8 -4 12 -10 9 -15z
m-4124 -70 c0 -21 -1 -22 -24 -13 -9 3 -16 12 -16 20 0 8 6 11 17 7 12 -5 14
-3 8 7 -5 9 -4 11 3 6 7 -4 12 -16 12 -27z m4126 -8 c-4 -6 -13 -11 -21 -11
-18 0 -28 32 -13 41 16 10 43 -15 34 -30z m-1107 -31 c23 0 31 -9 25 -25 -8
-19 -54 27 -53 51 1 15 3 14 6 -3 3 -14 12 -23 22 -23z m1056 30 c3 -5 -1 -10
-9 -10 -9 0 -16 5 -16 10 0 6 4 10 9 10 6 0 13 -4 16 -10z m-4316 -39 c15 -11
42 -21 61 -23 29 -3 36 -8 44 -36 7 -25 6 -36 -3 -41 -7 -5 -14 -20 -15 -35
-4 -29 -31 -55 -57 -56 -25 0 -122 158 -114 187 7 29 46 31 84 4z m-1214 -166
c11 -3 29 -25 40 -49 l20 -42 -47 -1 c-26 0 -47 3 -46 6 2 22 -3 41 -11 36 -5
-3 -12 -1 -15 4 -4 5 -2 12 4 16 6 4 8 11 5 16 -4 5 -4 13 -1 18 6 9 14 9 51
-4z m190 -151 c-15 -16 -45 -19 -45 -4 0 13 31 29 47 23 10 -4 10 -8 -2 -19z
m16 -137 c-10 -9 -11 -8 -5 6 3 10 9 15 12 12 3 -3 0 -11 -7 -18z m1352 -55
c16 -17 12 -35 -8 -39 -18 -3 -58 34 -51 46 11 17 41 13 59 -7z m-1711 -9 c22
-19 26 -120 6 -145 -31 -39 -72 -26 -82 26 -5 27 -1 47 19 86 14 27 28 50 32
50 3 0 15 -7 25 -17z m788 -22 c0 -23 -37 -38 -53 -22 -7 7 -6 15 3 26 18 22
50 19 50 -4z m-630 -81 c12 -30 8 -60 -9 -60 -10 0 -21 34 -21 68 0 31 15 27
30 -8z m425 19 c4 -6 -2 -13 -14 -16 -12 -3 -21 -11 -21 -18 0 -7 -7 -16 -16
-19 -13 -5 -15 -2 -11 14 3 11 1 18 -4 14 -10 -6 -12 19 -2 29 10 11 61 8 68
-4z m453 -45 c12 -8 29 -28 37 -45 11 -20 23 -29 40 -29 14 0 25 -5 25 -11 0
-6 -7 -9 -15 -5 -24 9 -44 -34 -49 -102 -4 -61 -3 -62 23 -68 51 -11 73 -24
69 -42 -5 -23 -55 -17 -85 10 l-22 20 -22 -43 c-21 -42 -26 -70 -28 -151 l-1
-37 -35 15 c-19 7 -47 14 -62 14 -24 0 -30 6 -41 41 -12 38 -11 45 14 97 17
35 27 71 25 93 -1 22 4 41 14 49 19 16 19 34 -1 65 -21 31 -10 80 25 117 29
32 56 35 89 12z m-455 -59 c4 -8 2 -17 -3 -20 -6 -4 -10 3 -10 14 0 25 6 27
13 6z m-241 -252 c-26 -21 -32 -15 -14 17 14 25 18 27 23 12 4 -10 1 -22 -9
-29z m-117 27 c3 -5 1 -10 -4 -10 -6 0 -11 5 -11 10 0 6 2 10 4 10 3 0 8 -4
11 -10z m1180 -30 c3 -5 3 -15 -1 -21 -6 -11 -23 6 -24 24 0 10 18 9 25 -3z
m-12 -72 c2 -7 0 -26 -5 -43 -4 -16 -8 -52 -8 -78 0 -64 -11 -82 -68 -108 -39
-17 -60 -20 -124 -16 -81 5 -92 -1 -58 -30 11 -10 20 -27 20 -38 0 -11 4 -26
9 -34 9 -14 -1 -41 -26 -69 -7 -7 -13 -19 -13 -27 0 -14 -25 -27 -34 -18 -3 4
-6 14 -6 23 0 10 -7 23 -15 30 -9 7 -15 30 -15 59 -1 25 -1 55 -1 66 -1 11 4
38 10 60 6 22 8 54 5 72 -5 26 -2 34 19 48 14 9 27 26 29 38 3 19 8 21 50 18
43 -2 48 0 54 23 4 16 13 26 24 26 22 0 37 -19 23 -29 -6 -3 -13 -16 -17 -28
-11 -34 31 -31 46 2 6 14 14 25 18 25 4 0 10 9 13 20 4 14 14 20 35 20 17 0
32 -6 35 -12z m17 -267 c0 -19 -23 -35 -34 -24 -14 15 -5 43 14 43 13 0 20 -7
20 -19z m-1180 -31 c0 -9 -23 -30 -32 -30 -4 0 -8 8 -8 18 0 11 7 18 20 18 11
0 20 -3 20 -6z m-50 -4 c0 -3 -4 -8 -10 -11 -5 -3 -10 -1 -10 4 0 6 5 11 10
11 6 0 10 -2 10 -4z m240 -66 c0 -5 -7 -10 -16 -10 -8 0 -12 5 -9 10 3 6 10
10 16 10 5 0 9 -4 9 -10z m1066 -117 c7 -25 -7 -43 -33 -43 -18 0 -28 47 -13
65 16 19 39 8 46 -22z m-36 -73 c0 -5 -4 -10 -10 -10 -5 0 -10 5 -10 10 0 6 5
10 10 10 6 0 10 -4 10 -10z"/>
<path d="M4381 7982 c13 -10 31 -22 39 -25 8 -4 22 -11 30 -15 8 -5 30 -16 49
-26 l34 -17 38 38 c60 60 56 63 -87 63 -125 0 -126 0 -103 -18z"/>
<path d="M3322 7699 c-14 -16 -17 -17 -27 -2 -8 11 -19 14 -31 9 -14 -5 -15
-9 -5 -15 7 -5 12 -12 12 -17 0 -5 11 -10 24 -11 14 -1 25 3 25 10 0 6 6 3 13
-7 12 -16 15 -16 28 -4 8 8 19 13 26 11 7 -3 9 3 6 15 -7 28 -51 35 -71 11z"/>
<path d="M3460 7674 c0 -9 5 -14 12 -12 18 6 21 28 4 28 -9 0 -16 -7 -16 -16z"/>
<path d="M3207 7647 c-3 -9 -14 -13 -29 -10 -14 3 -33 -3 -48 -15 -22 -18 -23
-22 -12 -46 18 -40 59 -32 84 14 12 24 24 34 37 32 11 -2 22 2 26 8 9 14 6 17
-26 25 -18 5 -28 2 -32 -8z"/>
<path d="M3307 7593 c-14 -13 -6 -29 13 -29 11 0 20 3 20 7 0 11 -27 29 -33
22z"/>
<path d="M2990 7555 c0 -8 5 -15 10 -15 6 0 10 7 10 15 0 8 -4 15 -10 15 -5 0
-10 -7 -10 -15z"/>
<path d="M4815 7489 c-22 -5 -49 -11 -60 -14 -11 -2 -44 -9 -73 -14 -30 -6
-77 -17 -105 -25 -29 -8 -77 -17 -107 -21 -111 -13 -170 -27 -170 -41 0 -8 5
-14 11 -14 7 0 10 -13 7 -34 -3 -32 -2 -33 41 -45 25 -7 51 -20 58 -30 8 -12
20 -17 38 -14 18 4 25 1 25 -10 0 -9 -4 -19 -10 -22 -18 -11 -11 -20 51 -65
34 -25 69 -52 79 -61 9 -9 42 -18 73 -22 52 -5 59 -3 93 24 34 27 57 55 90
111 6 11 22 31 34 45 12 14 23 36 23 49 0 13 8 31 18 40 10 9 21 37 25 63 4
25 10 48 15 51 4 3 -6 18 -22 34 -22 22 -29 25 -29 13 0 -21 -7 -21 -26 -2
-17 17 -21 17 -79 4z"/>
<path d="M3380 7424 c0 -8 5 -12 10 -9 6 3 10 10 10 16 0 5 -4 9 -10 9 -5 0
-10 -7 -10 -16z"/>
<path d="M3929 7333 c-17 -4 -51 -67 -42 -77 3 -3 14 -1 23 4 14 7 19 5 23
-11 3 -11 15 -23 26 -26 12 -3 21 -9 21 -14 0 -5 12 -9 28 -9 39 0 89 -7 101
-15 6 -3 11 -15 11 -26 0 -13 7 -19 21 -19 26 0 85 35 93 55 7 20 -48 46 -85
38 -26 -5 -29 -3 -29 20 0 33 -14 41 -40 25 -17 -11 -22 -10 -35 9 -16 22 -70
54 -89 52 -6 -1 -18 -3 -27 -6z"/>
<path d="M7845 7210 c-3 -5 -1 -10 4 -10 6 0 11 5 11 10 0 6 -2 10 -4 10 -3 0
-8 -4 -11 -10z"/>
<path d="M6418 6473 c6 -2 18 -2 25 0 6 3 1 5 -13 5 -14 0 -19 -2 -12 -5z"/>
<path d="M6296 6361 c-17 -17 -24 -31 -17 -35 22 -14 108 -36 140 -36 28 0 31
2 22 14 -7 8 -25 17 -40 21 -30 6 -38 35 -10 35 31 0 30 17 -2 24 -52 10 -64
7 -93 -23z"/>
<path d="M800 6361 c0 -12 4 -29 8 -39 36 -71 43 -78 134 -125 l93 -48 22 26
c32 37 29 45 -17 45 -21 0 -44 6 -50 13 -6 6 -21 24 -34 39 -13 15 -26 30 -27
35 -7 15 -76 62 -103 69 -22 5 -26 3 -26 -15z"/>
<path d="M801 6304 c0 -11 3 -14 6 -6 3 7 2 16 -1 19 -3 4 -6 -2 -5 -13z"/>
<path d="M6478 6293 c7 -3 16 -2 19 1 4 3 -2 6 -13 5 -11 0 -14 -3 -6 -6z"/>
<path d="M6230 6230 c0 -11 -3 -20 -8 -20 -4 0 -27 -18 -50 -41 -29 -27 -51
-39 -65 -37 -23 3 -62 -32 -73 -64 -3 -10 -14 -18 -25 -18 -32 0 -109 -58
-109 -83 0 -18 70 -37 136 -37 26 0 55 -6 63 -13 32 -26 207 -71 217 -56 9 15
45 10 80 -11 20 -13 46 -20 68 -18 47 3 54 24 11 32 -29 6 -36 13 -46 46 -7
22 -23 47 -36 55 -12 9 -23 24 -23 35 0 17 7 20 53 20 l53 0 -1 58 c0 51 -2
57 -22 60 -13 2 -23 10 -23 18 0 8 -7 14 -15 14 -10 0 -15 10 -15 34 0 33 -1
33 -52 40 -95 11 -118 8 -118 -14z"/>
<path d="M837 5990 c-35 -35 -37 -41 -31 -79 7 -47 23 -54 75 -34 27 10 43 11
64 3 25 -10 27 -13 21 -50 -5 -32 -3 -42 10 -47 33 -13 48 58 16 78 -15 10
-18 21 -14 64 4 50 3 53 -29 72 -58 35 -71 35 -112 -7z"/>
<path d="M3637 5779 c-29 -52 -41 -115 -24 -126 10 -6 30 -9 107 -14 8 -1 53
11 100 26 104 33 180 45 286 45 61 0 85 4 94 15 7 9 11 17 9 19 -2 1 -42 15
-89 29 -88 27 -145 32 -344 27 -68 -1 -101 2 -106 10 -5 8 -16 -3 -33 -31z"/>
<path d="M4232 5700 c14 -22 65 -46 76 -36 8 9 -18 26 -40 26 -10 0 -18 7 -18
15 0 8 -7 15 -15 15 -13 0 -13 -3 -3 -20z"/>
<path d="M1784 5676 c-8 -22 3 -33 18 -18 9 9 9 15 0 24 -9 9 -13 7 -18 -6z"/>
<path d="M1460 5630 c0 -5 5 -10 11 -10 5 0 7 5 4 10 -3 6 -8 10 -11 10 -2 0
-4 -4 -4 -10z"/>
<path d="M3673 5488 c-9 -10 -22 -18 -30 -18 -7 0 -13 -4 -13 -9 0 -5 -7 -17
-16 -25 -14 -15 -14 -17 1 -32 15 -15 15 -18 -2 -38 -10 -11 -22 -24 -28 -28
-5 -4 21 -6 60 -5 61 2 70 5 74 22 2 11 8 23 14 27 13 8 39 -10 32 -22 -10
-16 24 -18 100 -8 57 7 101 7 164 -2 167 -23 174 -23 169 -9 -8 25 -82 66
-149 82 -36 9 -110 22 -163 28 -92 12 -96 13 -80 31 16 17 16 18 -2 20 -78 6
-116 2 -131 -14z m217 -81 c0 -8 -3 -17 -7 -20 -9 -9 -34 13 -27 24 8 14 34
11 34 -4z"/>
<path d="M2730 5140 c-24 -15 -7 -18 20 -3 14 7 18 13 10 13 -8 0 -22 -4 -30
-10z"/>
<path d="M2610 5125 c-12 -15 -11 -16 16 -13 16 1 28 8 27 13 -3 17 -29 17
-43 0z"/>
<path d="M2677 5133 c-13 -13 -7 -21 13 -16 11 3 20 9 20 14 0 10 -24 12 -33
2z"/>
<path d="M2570 5120 c-13 -8 -12 -10 3 -10 9 0 17 5 17 10 0 12 -1 12 -20 0z"/>
<path d="M3060 4785 c-7 -8 -30 -25 -51 -37 -22 -12 -39 -25 -39 -29 0 -13
-93 -1 -101 13 -6 9 -9 6 -9 -9 0 -12 14 -38 31 -58 29 -33 30 -37 15 -54 -9
-9 -16 -23 -16 -29 0 -6 -9 -16 -20 -22 -11 -6 -20 -16 -20 -22 0 -16 -57 -68
-75 -68 -8 0 -19 -9 -25 -20 -9 -17 -14 -18 -30 -8 -16 10 -25 9 -50 -5 -16
-10 -39 -20 -49 -22 -11 -2 -29 -13 -40 -24 -12 -12 -25 -21 -31 -21 -17 0
-90 -118 -90 -145 0 -14 -6 -38 -14 -53 -29 -58 -27 -183 5 -242 13 -25 25
-52 26 -60 1 -8 8 -39 15 -68 9 -41 9 -61 0 -95 -7 -23 -15 -57 -18 -74 -2
-18 -9 -45 -14 -59 -7 -19 -7 -31 1 -40 6 -8 8 -14 3 -14 -5 0 -2 -4 6 -10 8
-5 11 -12 7 -16 -4 -5 -18 2 -30 14 -61 61 -122 112 -139 118 -32 10 -35 -6
-5 -30 15 -12 27 -29 27 -37 0 -8 7 -24 15 -35 19 -26 19 -43 -5 -96 -29 -65
-64 -100 -94 -92 -19 4 -26 1 -31 -17 -12 -37 -31 -50 -62 -44 -24 5 -25 5
-10 -5 14 -9 30 -9 62 -1 90 23 162 13 227 -32 16 -10 36 -16 46 -13 22 7 45
60 37 85 -3 11 -8 29 -10 41 -2 11 -10 36 -16 55 -7 19 -10 38 -6 42 12 12 50
-34 53 -64 2 -15 8 -29 14 -31 5 -2 10 -16 10 -30 0 -28 45 -158 63 -180 6 -7
23 -22 38 -33 24 -17 29 -17 42 -5 18 19 27 11 27 -24 0 -23 7 -30 45 -44 25
-10 54 -31 66 -47 11 -16 24 -29 29 -29 12 0 69 -58 62 -65 -3 -3 3 -5 14 -5
11 0 30 -7 43 -16 17 -12 44 -17 94 -16 63 1 120 -12 170 -39 13 -7 23 -4 38
10 16 14 32 18 71 15 36 -2 61 2 89 17 22 11 44 17 49 14 5 -3 11 -1 15 5 11
17 78 43 107 41 16 -2 35 6 47 18 15 15 34 21 65 21 26 0 48 6 56 15 7 8 17
12 23 8 5 -3 26 11 46 31 20 20 66 66 104 103 37 36 67 70 67 74 0 12 69 79
81 79 5 0 9 6 9 13 0 6 12 35 27 62 21 39 28 68 31 133 3 54 1 87 -7 95 -6 6
-11 23 -11 38 0 15 -4 29 -9 31 -4 2 -4 32 1 68 5 36 8 79 7 95 -8 86 2 203
18 214 21 14 43 58 43 86 0 17 9 47 20 67 l19 36 -25 64 c-70 174 -99 205
-213 231 -49 12 -69 12 -83 4 -14 -9 -23 -9 -38 1 -12 7 -26 9 -33 5 -15 -10
-56 -5 -84 9 -27 13 -46 1 -20 -13 18 -11 24 -49 7 -49 -15 0 -12 -16 6 -34 8
-9 13 -20 9 -25 -3 -5 5 -17 17 -25 25 -18 18 -33 -9 -21 -10 5 -22 7 -28 5
-32 -9 -78 2 -102 24 -25 24 -26 27 -14 66 16 53 7 83 -21 74 -18 -5 -20 -3
-15 18 8 30 -1 42 -20 27 -10 -9 -13 -6 -13 17 0 25 -4 29 -29 31 -16 1 -35
-4 -41 -12 -7 -8 -21 -15 -32 -15 -52 0 -74 -43 -43 -84 13 -18 15 -17 37 7
l24 25 13 -30 c8 -17 27 -36 45 -43 17 -7 40 -23 50 -34 18 -20 18 -21 0 -27
-11 -3 -30 -12 -44 -20 -14 -8 -41 -22 -60 -31 l-35 -16 34 -14 c18 -8 40 -12
47 -9 7 3 35 -1 61 -9 26 -8 58 -12 71 -8 24 6 62 -20 62 -42 0 -8 9 -10 24
-8 22 4 26 1 31 -30 4 -20 4 -41 -1 -48 -4 -8 -3 -10 4 -5 7 4 12 2 12 -5 0
-8 5 -7 17 2 9 8 19 13 22 13 3 -1 16 2 29 7 47 18 58 11 95 -62 21 -39 34
-75 31 -80 -3 -5 4 -22 15 -38 12 -16 21 -33 21 -39 0 -16 -40 -101 -50 -107
-14 -9 -12 -73 2 -77 7 -3 9 -12 5 -22 -4 -9 -11 -14 -17 -11 -5 3 -10 -2 -10
-12 -1 -17 -1 -17 -11 0 -8 14 -14 16 -25 6 -8 -6 -12 -20 -9 -30 3 -10 0 -21
-8 -26 -8 -4 -17 -32 -20 -62 -4 -30 -13 -61 -22 -71 -8 -9 -15 -23 -15 -31
-1 -14 -78 -105 -83 -98 -2 2 -8 16 -15 32 -6 15 -18 27 -26 27 -8 0 -22 8
-32 17 -10 10 -37 19 -64 21 -41 3 -50 0 -64 -20 -16 -22 -16 -21 -16 29 0 28
4 63 10 77 6 17 6 27 -1 31 -5 4 -21 24 -34 45 -15 24 -37 43 -60 51 -19 7
-35 19 -35 27 0 7 -4 11 -10 7 -5 -3 -18 3 -30 15 -30 30 -103 27 -151 -6 -29
-20 -39 -35 -44 -65 -4 -22 -17 -49 -28 -60 -24 -23 -94 -59 -113 -59 -14 0
-44 -43 -44 -65 0 -13 -37 -21 -72 -16 -53 7 -77 8 -88 1 -15 -9 -49 5 -62 24
-4 6 -8 23 -8 38 0 15 -7 34 -16 42 -11 11 -14 25 -9 46 5 23 2 32 -15 42 -24
15 -50 68 -50 104 0 13 -4 24 -10 24 -5 0 -10 15 -10 34 0 19 -5 57 -12 85
-10 43 -9 53 6 76 13 19 16 37 12 60 -9 45 15 69 59 61 36 -7 158 -65 163 -78
2 -4 12 -8 23 -8 10 0 19 -6 19 -14 0 -19 33 -10 56 15 15 17 15 21 -8 61 -21
37 -23 49 -16 85 11 52 39 71 74 52 20 -10 27 -10 43 6 11 9 33 18 48 19 28 2
103 44 103 59 0 4 -27 7 -61 7 -33 0 -69 5 -80 10 -26 15 -24 54 5 83 14 14
39 41 56 61 l32 36 -31 47 c-34 51 -43 113 -16 113 9 0 15 -9 15 -24 0 -33 34
-51 101 -54 56 -3 56 -3 63 29 8 44 7 58 -5 31 -10 -27 -21 -25 -103 14 -28
12 -53 21 -58 18 -4 -3 -5 1 -2 9 6 15 -58 77 -80 77 -8 0 -19 -7 -26 -15z
m-96 -631 c3 -8 2 -12 -4 -9 -6 3 -10 10 -10 16 0 14 7 11 14 -7z m653 -746
c-3 -7 -5 -2 -5 12 0 14 2 19 5 13 2 -7 2 -19 0 -25z"/>
<path d="M3430 4793 c-24 -9 -50 -35 -50 -51 0 -14 36 -14 125 0 13 2 23 -5
30 -19 10 -25 48 -31 75 -13 13 9 12 13 -5 26 -45 36 -143 68 -175 57z"/>
<path d="M3327 4593 c8 -23 43 -57 44 -43 5 49 3 55 -24 58 -22 3 -26 0 -20
-15z"/>
<path d="M2860 4580 c0 -5 5 -10 11 -10 5 0 7 5 4 10 -3 6 -8 10 -11 10 -2 0
-4 -4 -4 -10z"/>
<path d="M3223 4548 c3 -9 1 -18 -5 -20 -7 -3 -8 -13 -3 -28 8 -24 9 -24 16
10 5 22 4 39 -3 45 -8 7 -9 5 -5 -7z"/>
<path d="M3687 4523 c-3 -16 -1 -34 5 -40 10 -12 4 -17 -14 -14 -5 0 -8 -3 -8
-8 0 -11 70 -20 76 -9 9 14 -16 86 -32 92 -22 8 -21 9 -27 -21z"/>
<path d="M211 4464 c0 -11 3 -14 6 -6 3 7 2 16 -1 19 -3 4 -6 -2 -5 -13z"/>
<path d="M3651 4414 c0 -11 3 -14 6 -6 3 7 2 16 -1 19 -3 4 -6 -2 -5 -13z"/>
<path d="M1045 4239 c-4 -5 -1 -9 6 -9 8 0 8 -4 -1 -15 -14 -17 -5 -85 11 -85
5 0 19 6 32 13 12 6 23 12 24 13 2 0 -6 18 -17 39 -11 21 -18 41 -15 44 2 4
-5 7 -15 8 -11 1 -22 -2 -25 -8z"/>
<path d="M623 4201 c-31 -26 -29 -30 18 -29 46 0 70 -15 51 -34 -20 -20 -13
-36 24 -54 26 -13 41 -15 53 -7 23 15 20 46 -6 58 -12 5 -25 22 -29 37 -10 49
-70 64 -111 29z"/>
<path d="M3085 4110 c-3 -5 -1 -10 4 -10 6 0 11 5 11 10 0 6 -2 10 -4 10 -3 0
-8 -4 -11 -10z"/>
<path d="M3180 4090 c20 -13 33 -13 25 0 -3 6 -14 10 -23 10 -15 0 -15 -2 -2
-10z"/>
<path d="M3115 4080 c-3 -6 1 -7 9 -4 18 7 21 14 7 14 -6 0 -13 -4 -16 -10z"/>
<path d="M3010 4017 c0 -19 16 -31 24 -18 3 5 -1 14 -9 21 -12 10 -15 10 -15
-3z"/>
<path d="M1177 3988 c-20 -11 -23 -38 -4 -38 8 0 22 8 31 19 13 15 14 20 3 24
-7 3 -21 1 -30 -5z"/>
<path d="M4725 3940 c-8 -14 5 -123 17 -137 12 -15 55 -17 60 -5 2 5 31 30 66
57 35 26 62 48 60 50 -6 5 -167 45 -182 45 -8 0 -17 -4 -21 -10z"/>
<path d="M1382 3777 c-9 -11 -10 -17 -2 -22 15 -9 23 -1 18 21 -3 15 -4 16
-16 1z"/>
<path d="M6968 3722 c-27 -11 -78 -61 -78 -77 0 -20 36 -42 95 -56 28 -6 58
-16 68 -21 23 -12 40 31 31 80 -12 63 -63 95 -116 74z"/>
<path d="M5586 3680 c-4 -20 -6 -49 -4 -65 4 -41 -22 -43 -47 -5 -24 36 -43
38 -51 6 -11 -45 -36 -59 -83 -46 -36 9 -43 8 -61 -10 -27 -27 -39 -25 -80 10
-31 27 -98 55 -107 46 -2 -2 12 -34 31 -72 48 -97 63 -135 69 -168 13 -81
-123 -520 -303 -976 -95 -241 -161 -426 -271 -760 -10 -30 -33 -107 -53 -170
-122 -404 -216 -685 -288 -855 -97 -230 -231 -540 -250 -578 l-18 -37 1965 0
1965 0 0 495 c0 435 -2 494 -15 489 -10 -4 -15 0 -15 15 0 12 6 21 15 21 13 0
15 126 15 1075 0 949 -2 1075 -15 1075 -8 0 -15 -4 -15 -9 0 -5 -14 4 -30 21
-23 22 -29 36 -24 52 4 11 3 18 -1 14 -5 -4 -13 0 -20 9 -7 9 -17 13 -24 9 -8
-5 -5 -15 10 -34 12 -16 16 -28 10 -30 -6 -2 -8 -8 -5 -14 4 -6 -1 -8 -15 -3
-12 4 -21 2 -21 -4 0 -6 7 -11 15 -11 8 0 15 -6 16 -12 1 -26 7 -44 29 -90 12
-26 20 -55 18 -65 -5 -29 -52 -28 -95 1 -21 15 -39 22 -41 16 -6 -16 -22 -12
-22 5 0 8 4 15 9 15 5 0 3 14 -5 30 -21 42 -15 62 26 82 24 12 29 17 16 18
-15 0 -157 70 -175 87 -3 2 2 11 11 20 15 15 19 14 53 -5 35 -21 36 -21 52 -2
9 10 20 17 25 14 12 -8 38 15 38 32 0 8 -6 14 -14 14 -22 0 -28 32 -16 86 14
64 22 71 81 79 52 7 63 27 18 33 -13 2 -29 8 -35 13 -6 5 -19 6 -28 3 -10 -4
-25 1 -36 11 -16 14 -22 15 -35 5 -8 -7 -22 -9 -32 -5 -10 4 -39 9 -64 11
l-47 5 -11 -48 c-6 -27 -13 -84 -15 -127 -3 -73 -5 -81 -32 -104 -82 -68 -103
-92 -102 -119 0 -15 -5 -41 -11 -57 -17 -43 -5 -64 42 -78 23 -6 49 -17 58
-25 8 -7 19 -13 23 -13 4 0 19 -9 34 -20 17 -14 29 -17 36 -10 18 18 54 11 75
-16 23 -30 26 -46 11 -74 -9 -17 -42 -18 -38 -2 5 18 -15 53 -27 48 -7 -2 -15
1 -18 7 -4 11 -42 13 -154 9 -32 -2 -51 -10 -75 -31 l-33 -30 32 -28 c17 -15
34 -41 37 -58 5 -24 4 -26 -4 -12 -8 12 -20 16 -46 13 -19 -3 -34 0 -34 5 0
14 -26 39 -39 39 -6 0 -20 5 -30 12 -20 12 -56 4 -46 -11 3 -5 0 -13 -6 -17
-7 -4 -9 -3 -5 4 3 6 2 13 -3 16 -17 11 -24 -17 -7 -29 14 -11 14 -14 1 -25
-12 -10 -16 -9 -21 4 -9 24 -44 1 -44 -29 0 -26 15 -34 23 -12 4 9 8 8 16 -3
7 -10 11 -11 11 -2 0 6 5 12 10 12 6 0 10 -7 10 -15 0 -8 6 -12 14 -9 7 3 21
-2 30 -11 18 -18 21 -35 6 -35 -5 0 -10 -7 -10 -16 0 -9 -6 -14 -12 -12 -14 5
-31 -9 -40 -33 -4 -10 -25 -25 -48 -35 -40 -18 -58 -48 -47 -77 9 -24 89 -40
133 -28 52 14 57 14 50 -5 -4 -10 -1 -14 6 -11 12 3 86 -36 98 -53 3 -3 26
-16 52 -29 25 -12 54 -33 63 -47 9 -13 20 -22 25 -19 4 3 15 -2 23 -10 9 -8
20 -15 26 -15 6 0 11 -4 11 -9 0 -5 15 -15 34 -21 19 -6 53 -24 75 -40 25 -18
43 -25 47 -19 11 19 14 92 3 105 -12 14 -8 56 9 94 6 14 11 22 11 18 2 -12 81
72 81 86 0 7 9 21 19 30 17 15 25 16 55 6 l36 -11 -25 -45 c-14 -25 -25 -52
-25 -60 0 -18 -59 -128 -71 -132 -5 -2 -9 -8 -9 -14 0 -6 -8 -16 -17 -23 -12
-9 -16 -25 -15 -51 1 -22 -2 -45 -7 -53 -10 -16 -31 -6 -31 15 0 17 -16 19
-26 2 -4 -7 -3 -8 4 -4 7 4 12 2 12 -4 0 -8 -7 -9 -17 -5 -10 4 -38 14 -63 24
-25 9 -48 20 -51 25 -4 5 -12 5 -18 2 -6 -4 -35 18 -66 49 -30 31 -59 54 -64
50 -5 -3 -13 0 -18 8 -11 17 -58 37 -88 37 -14 0 -25 3 -25 8 0 4 -30 13 -67
20 -37 7 -75 19 -84 27 -8 8 -24 15 -35 15 -10 1 -30 7 -44 15 -14 8 -35 14
-47 15 -13 0 -23 5 -23 10 0 6 -11 10 -24 10 -14 0 -28 5 -31 11 -4 6 -13 8
-21 5 -8 -3 -14 -2 -14 3 0 5 -16 12 -36 16 -24 4 -38 13 -41 26 -3 12 -14 19
-28 19 -12 0 -28 7 -35 15 -7 8 -18 15 -25 15 -7 0 -16 7 -19 15 -4 13 -10 14
-26 5 -20 -11 -21 -9 -24 23 -1 11 -33 36 -48 37 -17 0 -7 -18 12 -23 11 -3
20 -11 20 -19 0 -9 -2 -10 -8 -1 -4 6 -23 16 -42 21 -19 6 -29 11 -22 11 6 1
12 6 12 12 0 6 -6 9 -14 6 -8 -3 -22 1 -33 8 -10 8 -28 15 -40 15 -13 0 -23 4
-23 8 0 5 -28 16 -62 27 -35 10 -67 21 -73 25 -5 4 -35 15 -67 25 l-56 17 -7
69 c-4 38 -11 69 -17 69 -5 0 -15 15 -23 33 -26 57 -39 67 -88 67 -37 0 -49
-4 -57 -21 -19 -34 -20 -60 -5 -90 8 -15 12 -30 7 -32 -11 -7 -72 22 -72 34 0
6 -9 8 -20 4 -19 -6 -75 7 -114 27 -11 6 -44 19 -75 29 -39 14 -72 35 -108 71
-58 57 -66 84 -29 98 23 8 35 8 106 -5 30 -5 43 -1 84 29 27 20 58 50 68 67
11 17 22 29 25 25 4 -3 21 5 39 19 18 14 44 29 58 35 26 10 33 24 17 34 -5 3
-18 24 -30 46 -19 38 -20 43 -6 70 15 28 14 30 -8 35 -12 4 -35 1 -50 -4 -23
-9 -29 -7 -43 14 -9 14 -24 25 -33 25 -9 0 -27 9 -40 19 -14 10 -30 17 -37 14
-9 -3 -12 4 -11 23 3 44 -28 44 -43 0 -14 -43 -65 -67 -73 -35 -3 10 -10 19
-17 19 -6 0 -8 -4 -5 -10 3 -5 -3 -26 -13 -47 -11 -21 -26 -51 -34 -68 -19
-41 -58 -42 -69 -1 -10 35 -1 54 48 101 34 33 46 39 66 36 5 -1 5 4 0 11 -39
63 -60 87 -70 84 -6 -3 -14 0 -16 7 -2 7 -8 -4 -11 -23z m184 -180 c0 -5 -5
-10 -11 -10 -5 0 -7 5 -4 10 3 6 8 10 11 10 2 0 4 -4 4 -10z m130 -216 c0 -34
-28 -63 -41 -43 -18 29 -6 69 22 69 14 0 19 -7 19 -26z m-90 -56 c0 -6 -7 -5
-15 2 -8 7 -15 17 -15 22 0 6 7 5 15 -2 8 -7 15 -17 15 -22z m2040 -392 c0 -8
6 -16 13 -19 15 -5 16 -34 3 -55 -5 -8 -19 -10 -42 -6 -32 6 -47 -7 -25 -21 9
-5 9 -71 0 -105 -2 -8 1 -14 8 -13 6 2 15 -7 18 -19 6 -16 9 -18 16 -7 5 8 9
10 9 4 0 -20 -17 -38 -24 -26 -14 22 -79 12 -120 -19 -22 -17 -50 -30 -63 -30
-13 0 -23 -4 -23 -10 0 -5 7 -10 15 -10 8 0 15 -4 15 -9 0 -18 -12 -41 -22
-41 -6 0 -7 7 -4 16 4 12 2 15 -9 10 -10 -3 -15 1 -15 12 -1 16 -1 16 -11 -1
-17 -29 -28 -10 -17 30 10 39 7 88 -10 140 -10 31 -9 33 38 67 33 24 76 42
132 56 82 20 101 32 91 57 -3 7 2 13 11 13 9 0 16 -6 16 -14z m-650 -56 c0 -5
-4 -10 -10 -10 -5 0 -10 5 -10 10 0 6 5 10 10 10 6 0 10 -4 10 -10z m707 -82
c-3 -8 -6 -5 -6 6 -1 11 2 17 5 13 3 -3 4 -12 1 -19z m-482 -58 c4 -6 11 -8
16 -5 5 4 14 -6 19 -20 13 -35 14 -34 -19 -33 -19 1 -44 -10 -69 -31 -40 -31
-79 -34 -68 -4 3 8 6 35 6 59 l0 44 54 0 c30 0 58 -5 61 -10z"/>
<path d="M5990 3685 c0 -8 7 -15 15 -15 8 0 15 4 15 9 0 5 -7 11 -15 15 -9 3
-15 0 -15 -9z"/>
<path d="M6650 3527 c-36 -21 -100 -105 -100 -131 0 -28 -22 -61 -53 -81 -42
-27 -59 -61 -45 -91 6 -13 16 -24 22 -24 6 0 28 -13 47 -30 l36 -29 6 45 c6
56 24 76 71 79 19 1 47 12 63 24 15 11 40 30 55 42 15 11 29 32 33 47 3 15 18
47 34 71 40 60 33 74 -44 89 -79 15 -82 15 -125 -11z"/>
<path d="M7308 3493 c7 -3 16 -2 19 1 4 3 -2 6 -13 5 -11 0 -14 -3 -6 -6z"/>
<path d="M6310 3482 c0 -7 -12 -18 -27 -25 -16 -6 -34 -20 -41 -29 -7 -10 -23
-18 -35 -19 -12 0 -16 -3 -10 -6 7 -2 37 1 68 7 46 10 56 16 61 36 4 14 2 30
-5 37 -8 8 -11 8 -11 -1z"/>
<path d="M7238 3466 c-19 -14 -25 -46 -9 -46 8 0 41 43 41 55 0 9 -14 5 -32
-9z"/>
<path d="M6327 3396 c-3 -8 -2 -18 3 -21 13 -8 24 15 12 27 -6 6 -11 4 -15 -6z"/>
<path d="M7750 3228 c0 -6 3 -8 6 -5 4 3 16 1 28 -5 19 -10 20 -10 7 5 -16 19
-41 23 -41 5z"/>
<path d="M4880 3160 c0 -5 7 -10 15 -10 8 0 15 5 15 10 0 6 -7 10 -15 10 -8 0
-15 -4 -15 -10z"/>
<path d="M4937 3163 c-2 -5 -3 -16 -1 -27 2 -14 0 -16 -9 -7 -15 15 -27 14
-27 -4 0 -11 7 -14 28 -10 15 3 34 7 41 9 8 1 17 8 19 16 7 20 -40 42 -51 23z"/>
<path d="M1904 3149 c-3 -6 -1 -16 4 -21 13 -13 45 8 36 23 -7 12 -31 11 -40
-2z"/>
<path d="M2380 3107 c-106 -6 -162 -13 -178 -23 -22 -14 -22 -15 -5 -47 9 -18
31 -71 48 -119 34 -97 68 -149 93 -141 13 3 12 1 -3 -11 -11 -9 -25 -14 -32
-12 -6 3 -47 -12 -90 -33 -43 -21 -98 -44 -123 -51 -25 -8 -47 -17 -50 -20 -3
-4 -32 -21 -65 -39 -33 -18 -62 -36 -65 -40 -3 -3 -16 -11 -30 -18 -24 -10
-51 -32 -146 -116 -24 -21 -47 -36 -53 -33 -5 4 -12 -2 -16 -13 -3 -11 -21
-25 -40 -31 -18 -6 -36 -17 -39 -25 -3 -8 -13 -11 -24 -8 -12 3 -22 -2 -26
-12 -3 -9 -11 -13 -17 -9 -8 5 -10 -1 -7 -20 3 -16 -1 -33 -12 -46 -21 -24
-30 -25 -30 -4 0 14 -3 14 -15 4 -8 -7 -15 -25 -15 -41 0 -16 -3 -28 -7 -27
-5 1 -58 -47 -119 -108 -86 -86 -120 -113 -154 -123 -38 -11 -45 -11 -55 3 -7
9 -15 13 -18 9 -4 -3 -7 6 -7 22 0 27 -1 28 -20 10 -14 -12 -27 -15 -47 -10
-40 9 -123 64 -123 81 0 20 -21 17 -50 -6 -14 -11 -30 -20 -36 -20 -6 0 -17
-7 -24 -15 -11 -13 -10 -22 5 -53 33 -69 46 -136 55 -297 5 -88 14 -240 20
-338 11 -175 6 -340 -20 -692 -5 -71 -12 -166 -15 -210 -3 -44 -10 -132 -15
-195 -5 -63 -10 -141 -10 -172 l0 -58 831 0 832 0 -6 28 c-31 154 -54 1097
-33 1342 3 30 8 114 11 185 3 72 10 153 15 180 5 28 17 102 25 165 9 63 38
212 65 330 27 118 54 266 60 327 12 131 36 269 52 300 8 16 7 30 -1 55 -7 18
-14 42 -17 53 -2 11 -15 47 -28 80 -18 44 -31 61 -48 65 -13 3 -93 2 -178 -3z
m0 -307 c0 -5 -5 -10 -11 -10 -5 0 -7 5 -4 10 3 6 8 10 11 10 2 0 4 -4 4 -10z
m-820 -510 c0 -5 -5 -10 -11 -10 -5 0 -7 5 -4 10 3 6 8 10 11 10 2 0 4 -4 4
-10z m-218 -417 c-43 -40 -63 -47 -62 -20 1 7 19 30 40 52 22 22 40 45 40 50
1 6 7 -1 14 -15 13 -23 12 -27 -32 -67z"/>
<path d="M4951 3089 c-7 -12 -10 -23 -8 -26 3 -3 11 5 17 17 6 12 10 23 8 25
-2 2 -10 -5 -17 -16z"/>
<path d="M6500 2890 c19 -13 30 -13 30 0 0 6 -10 10 -22 10 -19 0 -20 -2 -8
-10z"/>
<path d="M6904 2882 c2 -4 -9 -26 -24 -49 -28 -41 -29 -43 -13 -82 19 -47 11
-76 -17 -68 -32 8 -34 -12 -5 -43 15 -16 24 -33 21 -39 -12 -18 6 -12 20 7 10
14 16 15 32 6 15 -10 21 -7 38 17 10 16 25 29 32 29 6 0 12 10 12 23 0 18 -2
19 -10 7 -8 -13 -10 -12 -10 3 0 10 -3 16 -7 14 -5 -3 -17 -1 -28 3 -18 6 -17
9 13 24 33 17 43 51 21 73 -6 6 -14 26 -18 44 -5 28 -12 34 -34 36 -15 1 -25
-1 -23 -5z"/>
<path d="M209 2790 c-38 -20 -62 -44 -65 -66 -4 -27 22 -14 71 36 53 53 51 60
-6 30z"/>
<path d="M6824 2776 c-5 -6 -13 -19 -17 -30 -6 -14 -14 -17 -40 -12 -105 20
-105 20 -112 -4 -9 -27 2 -39 38 -42 15 -1 27 -6 27 -10 0 -11 63 3 80 18 8 7
19 13 25 13 12 0 25 55 16 69 -4 6 -10 5 -17 -2z"/>
<path d="M1856 2735 c-10 -15 -14 -43 -13 -79 2 -55 3 -57 27 -51 29 7 72 44
65 56 -3 4 -1 10 4 14 5 3 14 -2 19 -11 9 -15 15 -16 56 -4 34 9 46 18 46 31
0 13 -7 19 -23 19 -13 0 -56 11 -95 24 l-71 24 -15 -23z"/>
<path d="M6816 2623 c-11 -11 -6 -23 9 -23 8 0 15 4 15 9 0 13 -16 22 -24 14z"/>
<path d="M6985 2550 c3 -5 11 -10 16 -10 6 0 7 5 4 10 -3 6 -11 10 -16 10 -6
0 -7 -4 -4 -10z"/>
<path d="M2796 2463 c10 -105 26 -211 36 -239 14 -39 47 -62 59 -42 5 7 6 20
3 28 -3 8 -7 24 -9 35 -8 62 -63 231 -79 244 -11 9 -13 4 -10 -26z"/>
<path d="M638 2249 c-22 -12 -23 -38 -3 -45 9 -4 23 4 34 17 28 35 9 52 -31
28z"/>
</g>
</svg>
